PathFileType	4	(X/Y/Z)	..\data\2014014\dynamic\2014014_C4_04.trc
DataRate	CameraRate	NumFrames	NumMarkers	Units	OrigDataRate	OrigDataStartFrame	OrigNumFrames
100.000000	100.000000	4	52	mm	100.000000	133	178
Frame#	Time	L_IAS			L_IPS			R_IPS			R_IAS			L_FTC			L_FLE			L_FME			L_FAX			L_TTC			L_FAL			L_TAM			L_FCC			L_FM1			L_FM2			L_FM5			R_FTC			R_FLE			R_FME			R_FAX			R_TTC			R_FAL			R_TAM			R_FCC			R_FM1			R_FM2			R_FM5			CV7			TV10			SXS			SJN			L_SIA			L_SRS			L_SAA			L_SAE			L_HLE			L_HME			L_UOA			L_RSP			L_UHE			L_HM2			L_HM5			R_SIA			R_SRS			R_SAA			R_SAE			R_HLE			R_HME			R_UOA			R_RSP			R_UHE			R_HM2			R_HM5			
		X1	Y1	Z1	X2	Y2	Z2	X3	Y3	Z3	X4	Y4	Z4	X5	Y5	Z5	X6	Y6	Z6	X7	Y7	Z7	X8	Y8	Z8	X9	Y9	Z9	X10	Y10	Z10	X11	Y11	Z11	X12	Y12	Z12	X13	Y13	Z13	X14	Y14	Z14	X15	Y15	Z15	X16	Y16	Z16	X17	Y17	Z17	X18	Y18	Z18	X19	Y19	Z19	X20	Y20	Z20	X21	Y21	Z21	X22	Y22	Z22	X23	Y23	Z23	X24	Y24	Z24	X25	Y25	Z25	X26	Y26	Z26	X27	Y27	Z27	X28	Y28	Z28	X29	Y29	Z29	X30	Y30	Z30	X31	Y31	Z31	X32	Y32	Z32	X33	Y33	Z33	X34	Y34	Z34	X35	Y35	Z35	X36	Y36	Z36	X37	Y37	Z37	X38	Y38	Z38	X39	Y39	Z39	X40	Y40	Z40	X41	Y41	Z41	X42	Y42	Z42	X43	Y43	Z43	X44	Y44	Z44	X45	Y45	Z45	X46	Y46	Z46	X47	Y47	Z47	X48	Y48	Z48	X49	Y49	Z49	X50	Y50	Z50	X51	Y51	Z51	X52	Y52	Z52	

134	1.33	1410.901489257813	1003.94091796875	-377.6864318847657	1198.29248046875	1010.849670410156	-302.9660034179688	1200.114135742188	998.6113891601565	-199.2588348388672	1401.622192382813	980.2796020507815	-126.156982421875	1343.275024414063	907.9724731445315	-451.2714843750001	1410.80908203125	500.1032714843751	-391.5838623046876	1396.0517578125	495.8865661621095	-255.5675811767579	1399.726806640625	436.6284790039064	-393.6613769531251	1464.560668945313	434.6814880371095	-335.5757751464844	1411.781494140625	65.51245880126955	-354.2932128906251	1430.925659179688	97.96543121337893	-257.3705444335938	1359.413696289063	20.91873931884766	-297.2832336425782	1560.694946289063	21.98027420043946	-261.3151245117188	1575.59033203125	37.60361099243165	-319.9621276855469	1519.568115234375	18.32602500915528	-377.9174804687501	1326.995239257813	871.9861450195315	-68.25364685058595	1293.887573242188	468.2780151367189	-87.78672790527345	1339.624877929688	454.3523559570314	-215.5721435546876	1245.510009765625	440.8411865234376	-84.47440338134767	1297.529541015625	388.7406311035157	-128.1658782958985	952.715759277344	220.9822235107422	-123.3939056396485	1002.788818359375	205.3302917480469	-213.203109741211	909.0247802734377	230.3407287597657	-190.8028564453125	994.4653930664065	57.33202743530275	-207.5280151367188	1006.214782714844	69.18165588378908	-150.5744323730469	969.217956542969	90.25988006591798	-98.21834564208987	1251.1025390625	1529.233154296875	-254.0544433593751	1155.031005859375	1286.68017578125	-244.3006286621094	1430.112426757813	1252.958984375	-255.8856048583985	1377.548706054688	1435.816528320313	-252.9986419677735	1132.79931640625	1312.923706054688	-351.1974792480469	1177.290283203125	1453.0283203125	-361.2218627929688	1215.43994140625	1449.540893554688	-427.7897949218751	1261.33056640625	1442.418823242188	-455.9873352050782	1236.966186523438	1101.698974609375	-537.9285278320314	1208.078491210938	1094.643432617188	-448.7083129882814	1199.56005859375	1085.113891601563	-504.8549194335939	1308.274536132813	840.5744628906252	-501.952117919922	1233.4755859375	847.8047485351565	-550.7924804687501	1324.7470703125	753.5725097656251	-519.5090332031251	1219.2568359375	765.1849975585939	-554.5675048828126	1148.715087890625	1315.55029296875	-121.1285934448242	1203.455322265625	1457.292236328125	-114.6845855712891	1252.359497070313	1445.025512695313	-45.66612625122071	1302.513549804688	1438.107299804688	-37.57644653320313	1318.22021484375	1101.0400390625	47.68647766113282	1295.055541992188	1082.706420898438	-49.2141571044922	1278.911987304688	1076.306518554688	17.94831657409668	1444.204711914063	861.7965087890627	-1.58860993385315	1377.607666015625	857.7487792968752	62.02503204345705	1489.645385742188	778.7349243164065	24.85905838012696	1385.34716796875	759.3830566406251	61.80202102661134	
135	1.34	1421.407104492188	1004.649291992188	-378.8836059570313	1208.334838867188	1012.008483886719	-304.4169616699219	1210.030395507813	999.639587402344	-200.9770050048829	1411.451538085938	981.5522460937502	-127.1858139038086	1352.7314453125	908.4132080078127	-452.5136108398439	1415.03564453125	499.9547729492189	-391.9310302734376	1400.573852539063	496.0561523437501	-255.9924316406251	1402.969604492188	436.6085815429689	-393.9376525878907	1468.279663085938	433.9791564941407	-336.2359008789063	1411.526489257813	65.61021423339845	-353.9337768554688	1431.066528320313	97.91404724121097	-257.0446166992188	1359.288208007813	20.85129356384278	-297.1477661132813	1560.598266601563	21.85929679870606	-261.0901794433594	1575.664794921875	37.62029647827149	-319.7953186035157	1519.519287109375	18.49814033508301	-377.9054870605469	1337.8251953125	872.912536621094	-69.61927795410158	1316.797973632813	468.5975952148439	-87.0237503051758	1363.251098632813	455.2605590820314	-215.3040466308594	1268.893188476563	441.9924926757814	-83.69608306884767	1320.6064453125	389.3989257812501	-128.259765625	972.4516601562502	228.5243835449219	-124.3540420532227	1022.117065429688	211.9392089843751	-214.2839965820313	928.5806274414065	238.6284942626954	-191.7949981689453	1011.454467773438	63.39513397216798	-207.0616455078126	1023.158142089844	75.24096679687501	-150.5873413085938	986.8491210937502	98.23224639892581	-98.73667144775393	1262.075561523438	1530.551147460938	-255.6257934570313	1165.728149414063	1288.083251953125	-246.1893615722657	1440.913696289063	1254.073486328125	-256.8465270996094	1388.337890625	1437.003662109375	-254.1477813720704	1143.857788085938	1314.448608398438	-353.4458312988282	1188.588012695313	1454.405151367188	-363.1702575683594	1227.172973632813	1450.7177734375	-429.5853271484376	1273.063110351563	1443.5908203125	-457.4910583496095	1251.349365234375	1102.72607421875	-540.2713012695314	1221.721313476563	1095.27099609375	-451.3109130859376	1213.779174804688	1085.478271484375	-507.5455932617189	1327.164428710938	842.9075317382815	-503.8099670410157	1252.399169921875	848.6441040039065	-552.8786621093751	1345.487426757813	756.3822021484376	-521.4528198242189	1239.837158203125	765.7095336914064	-556.5996704101564	1158.94287109375	1317.108032226563	-122.9319076538086	1213.936401367188	1458.747314453125	-116.3207778930664	1262.722412109375	1446.407836914063	-47.2095069885254	1312.901489257813	1439.401611328125	-38.96837997436524	1327.322265625	1102.068725585938	45.70146560668946	1303.811645507813	1084.163330078125	-51.13126754760744	1287.884033203125	1077.75634765625	15.90918922424317	1450.747802734375	861.7440185546877	-3.761514186859132	1384.203002929688	858.2944946289065	60.09588623046876	1494.78955078125	777.3873291015627	21.93879699707032	1390.515747070313	759.7937011718751	59.56430435180665	
136	1.35	1431.790893554688	1005.152404785156	-379.9607849121094	1218.280151367188	1013.157592773438	-305.8238220214844	1219.841552734375	1000.749694824219	-202.6552734375001	1421.1494140625	982.9157714843752	-128.0417022705078	1362.0068359375	908.750427246094	-453.6247558593751	1418.831420898438	499.7535095214845	-392.2571411132814	1405.114379882813	496.1744384765626	-256.3385314941407	1405.779907226563	436.5341796875001	-394.1851501464845	1471.666748046875	433.2517395019532	-337.0852661132813	1411.209106445313	65.65071105957033	-353.6619567871094	1431.201904296875	97.85164642333987	-256.8251342773438	1359.116943359375	20.78374862670899	-297.0107727050782	1560.481201171875	21.75313949584961	-260.9176635742188	1575.637939453125	37.57473754882813	-319.6659545898438	1519.440307617188	18.5066204071045	-377.8855285644532	1348.464233398438	874.053894042969	-70.82593536376955	1339.547119140625	469.4336853027345	-86.48795318603517	1386.669677734375	456.8624572753907	-215.2420806884766	1292.113159179688	443.5189819335939	-83.19534301757814	1343.715209960938	390.6141967773439	-128.5600280761719	993.078796386719	235.0144805908204	-125.3860092163086	1042.393676757813	217.9109497070313	-215.4272918701172	948.9312133789065	245.4257202148438	-192.8286590576172	1031.102294921875	69.05480194091798	-206.7902069091797	1042.593627929688	81.15209960937501	-150.700439453125	1006.652038574219	105.3242263793946	-99.39142608642581	1272.9814453125	1531.8408203125	-257.1162719726563	1176.290283203125	1289.47900390625	-248.1083526611329	1451.610961914063	1255.119384765625	-257.7007141113282	1399.030029296875	1438.117797851563	-255.1687011718751	1154.833618164063	1315.993774414063	-355.7411804199219	1199.879638671875	1455.800659179688	-365.1155090332032	1238.93896484375	1451.903442382813	-431.3528747558595	1284.876342773438	1444.76318359375	-458.946990966797	1265.75634765625	1103.766845703125	-542.6233520507814	1235.244750976563	1095.90673828125	-453.9817810058595	1228.019897460938	1085.83349609375	-510.297821044922	1346.175048828125	845.3703613281252	-505.5428161621095	1271.508422851563	849.5557861328127	-554.8951416015626	1366.492065429688	759.4234619140626	-523.2985229492189	1260.685913085938	766.3242187500001	-558.5520019531251	1168.943115234375	1318.560913085938	-124.8755645751953	1224.213134765625	1460.121826171875	-117.9632110595703	1272.814697265625	1447.660400390625	-48.71890258789064	1323.00048828125	1440.5791015625	-40.26108932495118	1336.34423828125	1102.9580078125	43.84273529052735	1312.39501953125	1085.411865234375	-52.91676330566408	1296.758422851563	1079.025146484375	14.02009296417237	1457.285034179688	861.674255371094	-5.951987743377686	1390.965698242188	858.7776489257815	58.29620742797853	1499.99267578125	776.0471801757815	18.91817283630371	1395.8515625	760.1848144531251	57.47189712524415	
137	1.36	1442.052856445313	1005.497619628906	-380.9494323730469	1228.171264648438	1014.298034667969	-307.1734008789063	1229.593505859375	1001.937805175781	-204.2531280517579	1430.777587890625	984.3811645507815	-128.7768249511719	1371.112670898438	909.0075683593752	-454.606170654297	1422.31591796875	499.533905029297	-392.5621337890626	1409.719360351563	496.2541503906251	-256.6121215820313	1408.306274414063	436.4400634765626	-394.4030151367189	1474.807495117188	432.526336669922	-338.0620117187501	1410.869140625	65.65442657470705	-353.4802856445313	1431.33935546875	97.78725433349612	-256.7077026367188	1358.9287109375	20.7231502532959	-296.8872375488282	1560.352905273438	21.64079475402832	-260.7936096191407	1575.546020507813	37.46312713623048	-319.5717773437501	1519.347290039063	18.38083267211914	-377.8737182617188	1358.985717773438	875.416198730469	-71.87856292724611	1362.075561523438	470.7759399414064	-86.1768035888672	1409.828247070313	459.124725341797	-215.3440399169922	1315.111694335938	445.3801879882814	-82.97414398193361	1366.790405273438	392.3704528808595	-129.0241088867188	1014.529052734375	240.2857971191407	-126.4805679321289	1063.576782226563	223.0774078369141	-216.6278991699219	970.0106201171877	250.5904083251954	-193.9052429199219	1053.2763671875	74.10361480712892	-206.7763061523438	1064.407958984375	86.68260192871095	-150.9641876220703	1028.509399414063	111.3079147338867	-100.2074661254883	1283.807495117188	1533.100341796875	-258.5213928222657	1186.733520507813	1290.85595703125	-250.0349121093751	1462.199951171875	1256.11328125	-258.4612731933594	1409.625366210938	1439.17138671875	-256.0690307617188	1165.735595703125	1317.552490234375	-358.0711669921876	1211.148315429688	1457.210205078125	-367.0435180664063	1250.709106445313	1453.109252929688	-433.0806274414064	1296.742797851563	1445.949462890625	-460.3491516113282	1280.201538085938	1104.837646484375	-544.9712524414064	1248.656982421875	1096.568359375	-456.7036743164064	1242.2978515625	1086.20166015625	-513.0941772460939	1365.263427734375	847.971374511719	-507.1340942382814	1290.771728515625	850.5693969726565	-556.8350830078126	1387.701049804688	762.7044677734376	-525.0297241210939	1281.761596679688	767.0677490234376	-560.4332275390626	1178.74072265625	1319.90234375	-126.9382476806641	1234.285888671875	1461.416870117188	-119.6081008911133	1282.643798828125	1448.789306640625	-50.19215011596681	1332.809326171875	1441.662353515625	-41.44842529296876	1345.253295898438	1103.727416992188	42.0985336303711	1320.82470703125	1086.478515625	-54.59720993041994	1305.511962890625	1080.13232421875	12.25507736206055	1463.82080078125	861.6000976562502	-8.151647567749025	1397.877807617188	859.2131347656252	56.60962677001955	1505.283813476563	774.763122558594	15.84180641174317	1401.378295898438	760.5704956054689	55.53687667846681	
